<svg xmlns="http://www.w3.org/2000/svg" width="17" height="16" viewBox="0 0 17 16">
    <g fill="none" fill-rule="evenodd">
        <g fill="#303233">
            <g>
                <g>
                    <g>
                        <g>
                            <g>
                                <path d="M8 1c3.866 0 7 3.134 7 7s-3.134 7-7 7-7-3.134-7-7 3.134-7 7-7zm0 1.273C4.837 2.273 2.273 4.837 2.273 8c0 3.163 2.564 5.727 5.727 5.727 3.163 0 5.727-2.564 5.727-5.727 0-3.163-2.564-5.727-5.727-5.727zm0 7.635c.352 0 .637.285.637.636 0 .352-.285.637-.637.637-.351 0-.636-.285-.636-.637 0-.351.285-.636.636-.636zm0-5.726c1.454 0 2.545.84 2.545 2.227 0 1.083-.397 1.547-1.306 2.001-.523.262-.603.355-.603.863H7.364c0-1.083.397-1.547 1.306-2.001.523-.262.603-.355.603-.863 0-.6-.46-.954-1.273-.954-.703 0-1.273.57-1.273 1.272H5.455c0-1.406 1.14-2.545 2.545-2.545z"
                                      transform="translate(-654 -541) translate(165 150) translate(380 391) translate(7.557) translate(98) translate(4)"/>
                            </g>
                        </g>
                    </g>
                </g>
            </g>
        </g>
    </g>
</svg>
