<svg xmlns="http://www.w3.org/2000/svg" width="16" height="16" viewBox="0 0 16 16">
    <path fill="#303233" fill-rule="evenodd"
          d="M10.571 12.667H5.43V6h5.142v6.667zM9.474 2H6.526c-.085 0-.167.035-.227.098l-.455.471c-.06.063-.142.098-.227.098H3.82c-.177 0-.321.149-.321.333v.667c0 .184.144.333.321.333h8.358c.177 0 .321-.15.321-.333V3c0-.184-.144-.333-.321-.333h-1.796c-.085 0-.167-.035-.227-.098L9.7 2.098C9.641 2.035 9.56 2 9.474 2zm2.383 2.667H4.143v8C4.143 13.4 4.72 14 5.429 14h5.142c.708 0 1.286-.6 1.286-1.333v-8z"/>
</svg>
