<svg xmlns="http://www.w3.org/2000/svg" width="16" height="16" viewBox="0 0 16 16">
    <g fill="none" fill-rule="evenodd">
        <g fill="#303233">
            <g>
                <g>
                    <g>
                        <path d="M8 1c3.866 0 7 3.134 7 7s-3.134 7-7 7-7-3.134-7-7 3.134-7 7-7zm0 1.273C4.837 2.273 2.273 4.837 2.273 8c0 3.163 2.564 5.727 5.727 5.727 3.163 0 5.727-2.564 5.727-5.727 0-3.163-2.564-5.727-5.727-5.727zm.639 4.453v2.546h.636v1.272H6.729V9.272h.637V7.999h-.637V6.726h1.91zM8 4.817c.352 0 .637.285.637.636 0 .352-.285.637-.637.637-.351 0-.636-.285-.636-.637 0-.351.285-.636.636-.636z"
                              transform="translate(-402 -97) translate(165 84) translate(237 12) translate(0 1)"/>
                    </g>
                </g>
            </g>
        </g>
    </g>
</svg>
